<?xml version="1.0" ?>
<!-- Uploaded to: SVG Repo, www.svgrepo.com, Generator: SVG Repo Mixer Tools -->
<svg width="800px" height="800px" viewBox="-6 0 117 117" version="1.1" xmlns="http://www.w3.org/2000/svg" xmlns:xlink="http://www.w3.org/1999/xlink">
<title/>
<desc/>
<defs/>
<g fill="none" fill-rule="evenodd" id="Page-1" stroke="none" stroke-width="1">
<g fill-rule="nonzero" id="stopwatch">
<path d="M0.3,64.2 C0.3,93 23.7,116.4 52.5,116.4 C81.3,116.4 104.7,93 104.7,64.2 C104.7,49.9 98.9,36.8 89.5,27.4 L93.6,23.3 L95.5,25.2 C96.3,26 97.3,26.4 98.4,26.4 C99.5,26.4 100.5,26 101.3,25.2 C102.9,23.6 102.9,21 101.3,19.4 L91.8,9.9 C90.2,8.3 87.6,8.3 86,9.9 C84.4,11.5 84.4,14.1 86,15.7 L87.9,17.6 L83.4,22.1 C75.8,16.5 66.7,13 56.7,12.2 L56.7,8.7 L65.8,8.7 C68.1,8.7 69.9,6.9 69.9,4.6 C69.9,2.3 68.1,0.5 65.8,0.5 L38.8,0.5 C36.5,0.5 34.7,2.3 34.7,4.6 C34.7,6.9 36.5,8.7 38.8,8.7 L48.5,8.7 L48.5,12.2 C21.5,14.3 0.3,36.8 0.3,64.2 Z M52.5,20.2 C76.8,20.2 96.6,40 96.6,64.3 C96.6,88.6 76.8,108.4 52.5,108.4 C28.2,108.4 8.4,88.6 8.4,64.3 C8.4,39.9 28.2,20.2 52.5,20.2 Z" fill="#4A4A4A" id="Shape"/>
<path d="M52.5,67.6 L70,67.6 C72.3,67.6 74.1,65.8 74.1,63.5 C74.1,61.2 72.3,59.4 70,59.4 L56.6,59.4 L56.6,38.3 C56.6,36 54.8,34.2 52.5,34.2 C50.2,34.2 48.4,36 48.4,38.3 L48.4,63.6 C48.4,65.8 50.2,67.6 52.5,67.6 Z" fill="#17AB13" id="Shape"/>
</g>
</g>
</svg>